<svg width="19" height="19" viewBox="0 0 19 19" fill="none" xmlns="http://www.w3.org/2000/svg">
<path d="M5.85756 1.3656C5.58687 0.711721 4.87323 0.363689 4.19122 0.550009L1.09761 1.39372C0.485919 1.56246 0.0605469 2.11791 0.0605469 2.75069C0.0605469 11.448 7.11258 18.5 15.8099 18.5C16.4426 18.5 16.9981 18.0746 17.1668 17.4629L18.0105 14.3693C18.1969 13.6873 17.8488 12.9737 17.1949 12.703L13.8201 11.2968C13.2471 11.0578 12.5827 11.223 12.1924 11.7046L10.7722 13.4377C8.29729 12.2671 6.29348 10.2633 5.12282 7.78836L6.85595 6.37163C7.33757 5.9779 7.5028 5.31699 7.26374 4.74397L5.85756 1.36911V1.3656Z" fill="white"/>
</svg>
