<svg width="21" height="15" viewBox="0 0 21 15" fill="none" xmlns="http://www.w3.org/2000/svg">
<path d="M1.88643 0C0.844965 0 0 0.839844 0 1.875C0 2.46484 0.279035 3.01953 0.754573 3.375L9.3064 9.75C9.75443 10.082 10.3675 10.082 10.8155 9.75L19.3674 3.375C19.8429 3.01953 20.122 2.46484 20.122 1.875C20.122 0.839844 19.277 0 18.2355 0H1.88643ZM0 4.375V12.5C0 13.8789 1.12793 15 2.51524 15H17.6067C18.994 15 20.122 13.8789 20.122 12.5V4.375L11.5701 10.75C10.6741 11.418 9.44789 11.418 8.55183 10.75L0 4.375Z" fill="white"/>
</svg>
