<svg width="25" height="19" viewBox="0 0 25 19" fill="none" xmlns="http://www.w3.org/2000/svg">
<path d="M5.8787 18.198C4.84346 18.198 3.88216 17.946 2.99481 17.442C2.10746 16.938 1.38649 16.2 0.831892 15.228C0.277297 14.256 0 13.122 0 11.826C0 10.602 0.277297 9.306 0.831892 7.938C1.42346 6.57 2.3293 5.202 3.54941 3.834C4.80649 2.466 6.41481 1.188 8.37438 0L11.591 3.294C10.297 4.554 9.35416 5.76 8.7626 6.912C8.208 8.028 7.9307 9.054 7.9307 9.99C7.9307 11.034 8.208 11.862 8.7626 12.474C9.31719 13.086 10.1676 13.716 11.3137 14.364C10.981 15.516 10.297 16.452 9.26173 17.172C8.22649 17.856 7.09881 18.198 5.8787 18.198ZM19.189 18.198C18.1537 18.198 17.1924 17.946 16.3051 17.442C15.4177 16.938 14.6968 16.2 14.1422 15.228C13.5876 14.256 13.3103 13.122 13.3103 11.826C13.3103 10.602 13.5876 9.306 14.1422 7.938C14.7337 6.57 15.6396 5.202 16.8597 3.834C18.1168 2.466 19.7251 1.188 21.6846 0L24.9013 3.294C23.6072 4.554 22.6644 5.76 22.0729 6.912C21.5183 8.028 21.241 9.054 21.241 9.99C21.241 11.034 21.5183 11.862 22.0729 12.474C22.6275 13.086 23.4778 13.716 24.624 14.364C24.2912 15.516 23.6072 16.452 22.572 17.172C21.5368 17.856 20.4091 18.198 19.189 18.198Z" fill="#00833E"/>
</svg>
